<?xml version="1.0" encoding="utf-8"?>
<!-- Generator: Adobe Illustrator 15.0.0, SVG Export Plug-In . SVG Version: 6.00 Build 0)  -->
<!DOCTYPE svg PUBLIC "-//W3C//DTD SVG 1.1//EN" "http://www.w3.org/Graphics/SVG/1.1/DTD/svg11.dtd">
<svg version="1.1" id="Capa_1" xmlns="http://www.w3.org/2000/svg" xmlns:xlink="http://www.w3.org/1999/xlink" x="0px" y="0px"
	 width="185px" height="65px" viewBox="0 0 185 65" enable-background="new 0 0 185 65" xml:space="preserve">
<text transform="matrix(1 0 0 1 68.1899 35.5625)" opacity="0.9" fill="#FFFFFF" font-family="'Muli'" font-size="37.442" letter-spacing="-1">ELKAR</text>
<text transform="matrix(1 0 0 1 69.6616 54.6973)" opacity="0.6"><tspan x="0" y="0" opacity="0.9" fill="#FFFFFF" font-family="'Muli'" font-size="21.6885" letter-spacing="4">BACKUP</tspan></text>
<g>
	<circle opacity="0.9" fill="#FFFFFF" cx="28.752" cy="32.016" r="0.721"/>
	<circle opacity="0.9" fill="#FFFFFF" cx="28.752" cy="28.747" r="0.721"/>
	<g>
		<path opacity="0.9" fill="#FFFFFF" d="M32.393,1.017C15.005,1.017,0.909,15.113,0.909,32.5c0,17.387,14.096,31.483,31.484,31.483
			S63.875,49.888,63.875,32.5C63.875,15.113,49.781,1.017,32.393,1.017z M45.029,49.373H19.457c-0.035,0-0.066-0.008-0.1-0.011
			c-6.073-0.211-10.949-5.214-10.949-11.337c0-6.369,3.447-10.629,9.573-10.82c0.698-0.031,1.266,0.52,1.288,1.21
			c0.021,0.689-0.52,1.267-1.211,1.288c-4.723,0.147-7.15,3.357-7.15,8.322c0,4.879,3.969,8.848,8.848,8.848h25.272
			c4.879,0,8.848-3.969,8.848-8.848c0-4.85-3.887-8.649-8.848-8.649c-0.611,0-1.117-0.438-1.227-1.017
			c-0.022-0.077-0.036-0.163-0.036-0.263c0-5.721-4.654-9.875-10.374-9.875c-5.72,0-10.373,4.654-10.373,10.375
			c0,5.72,4.653,10.372,10.373,10.372c3.027,0,5.89-1.316,7.866-3.612l-1.595-1.024l4.37-0.951l0.949,4.369l-1.551-0.997
			c-0.045,0.086-0.097,0.17-0.164,0.248c-2.47,2.899-6.07,4.562-9.875,4.562c-7.151,0-12.967-5.817-12.967-12.967
			c0-7.151,5.816-12.967,12.967-12.967c6.76,0,12.326,4.754,12.912,11.317c5.741,0.604,10.071,5.253,10.071,11.08
			C56.376,44.282,51.285,49.373,45.029,49.373z M38.306,30.248h-9.673c-0.828,0-1.5-0.671-1.5-1.5c0-0.829,0.671-1.5,1.5-1.5h9.673
			c0.828,0,1.5,0.671,1.5,1.5C39.806,29.577,39.134,30.248,38.306,30.248z M39.806,32.016c0,0.828-0.672,1.5-1.5,1.5h-9.673
			c-0.828,0-1.5-0.672-1.5-1.5s0.671-1.5,1.5-1.5h9.673C39.134,30.516,39.806,31.188,39.806,32.016z M38.306,26.894h-9.673
			c-0.828,0-1.5-0.671-1.5-1.5c0-0.829,0.671-1.5,1.5-1.5h9.673c0.828,0,1.5,0.672,1.5,1.5
			C39.806,26.223,39.134,26.894,38.306,26.894z"/>
		<circle opacity="0.9" fill="#FFFFFF" cx="28.752" cy="25.395" r="0.721"/>
	</g>
</g>
</svg>
