<?xml version="1.0" encoding="utf-8"?>
<!-- Generator: Adobe Illustrator 15.0.0, SVG Export Plug-In . SVG Version: 6.00 Build 0)  -->
<!DOCTYPE svg PUBLIC "-//W3C//DTD SVG 1.1//EN" "http://www.w3.org/Graphics/SVG/1.1/DTD/svg11.dtd">
<svg version="1.1" id="Capa_1" xmlns="http://www.w3.org/2000/svg" xmlns:xlink="http://www.w3.org/1999/xlink" x="0px" y="0px"
	 width="185px" height="65px" viewBox="0 0 185 65" enable-background="new 0 0 185 65" xml:space="preserve">
<g opacity="0.9" enable-background="new    ">
	<path fill="#FFFFFF" d="M88.336,35.562H71.938V8.943h15.851v2.706H75.082v8.922h12.011v2.705H75.082v9.58h13.254V35.562z"/>
	<path fill="#FFFFFF" d="M109.101,35.562H93.177V8.943h3.145v23.913h12.743L109.101,35.562z"/>
	<path fill="#FFFFFF" d="M115.971,35.562h-3.145V8.943h3.145V21.01l1.608-1.664l10.165-10.402h3.949l-12.598,12.396l13.584,14.224
		h-4.314l-10.859-11.591l-1.535-1.664V35.562z"/>
	<path fill="#FFFFFF" d="M135.309,35.562h-3.4L142.95,8.943h3.382l11.061,26.619H153.9l-2.979-7.258H138.16L135.309,35.562z
		 M139.166,25.599h10.676l-4.277-11.061c-0.098-0.231-0.201-0.503-0.311-0.813s-0.214-0.606-0.311-0.887
		c-0.123-0.329-0.238-0.664-0.348-1.006c-0.122,0.391-0.244,0.762-0.365,1.115c-0.098,0.305-0.205,0.606-0.32,0.905
		c-0.116,0.299-0.205,0.533-0.266,0.704L139.166,25.599z"/>
	<path fill="#FFFFFF" d="M163.641,23.643v11.92h-3.145V8.943h6.508c0.721,0,1.51,0.013,2.369,0.037s1.721,0.104,2.586,0.237
		s1.701,0.344,2.506,0.63c0.803,0.286,1.52,0.686,2.146,1.197c0.629,0.512,1.129,1.166,1.5,1.964
		c0.371,0.799,0.557,1.77,0.557,2.915c0,0.84-0.133,1.614-0.4,2.32c-0.27,0.706-0.652,1.34-1.152,1.9s-1.1,1.035-1.801,1.425
		s-1.479,0.694-2.332,0.914h0.02c0.742,0.243,1.355,0.604,1.836,1.079c0.482,0.476,0.918,1.088,1.309,1.838
		c0.389,0.75,0.773,1.641,1.15,2.671c0.379,1.031,0.842,2.223,1.391,3.576l1.59,3.915h-3.438l-2.797-7.66
		c-0.305-0.829-0.605-1.518-0.904-2.066c-0.299-0.548-0.652-0.983-1.061-1.307s-0.891-0.552-1.443-0.686
		c-0.555-0.134-1.242-0.201-2.059-0.201H163.641z M163.641,20.937h4.863c0.816,0,1.633-0.072,2.449-0.219
		c0.816-0.146,1.551-0.396,2.203-0.748s1.18-0.833,1.582-1.441s0.604-1.381,0.604-2.317c0-0.912-0.168-1.663-0.504-2.254
		c-0.334-0.59-0.801-1.055-1.398-1.396c-0.596-0.34-1.297-0.578-2.102-0.711c-0.805-0.134-1.682-0.201-2.633-0.201h-5.064V20.937z"
		/>
</g>
<g opacity="0.9" enable-background="new    ">
	<path fill="#FFFFFF" d="M71.8,54.697V39.278h3.071c0.572,0,1.123,0.007,1.652,0.021c0.53,0.015,1.038,0.05,1.525,0.106
		c0.537,0.063,1.033,0.194,1.488,0.392c0.455,0.198,0.849,0.45,1.181,0.758c0.332,0.307,0.591,0.667,0.778,1.08
		s0.281,0.866,0.281,1.36c0,0.424-0.069,0.826-0.207,1.207c-0.138,0.382-0.33,0.726-0.577,1.033
		c-0.248,0.307-0.544,0.573-0.89,0.799c-0.346,0.227-0.724,0.399-1.133,0.52c0.014,0,0.03,0.002,0.048,0.005
		c0.018,0.004,0.033,0.006,0.047,0.006c0.508,0.105,0.975,0.267,1.398,0.481c0.424,0.216,0.787,0.487,1.091,0.815
		s0.539,0.706,0.704,1.133c0.166,0.428,0.249,0.906,0.249,1.436c0,0.564-0.107,1.104-0.323,1.62
		c-0.216,0.516-0.539,0.969-0.969,1.36c-0.431,0.393-0.965,0.705-1.604,0.938c-0.639,0.233-1.382,0.35-2.229,0.35H71.8z
		 M73.622,45.929h2.076c0.516,0,1.022-0.041,1.52-0.122c0.498-0.081,0.942-0.221,1.334-0.418c0.392-0.197,0.708-0.466,0.948-0.805
		c0.24-0.339,0.36-0.77,0.36-1.292c0-0.516-0.104-0.934-0.312-1.255c-0.208-0.321-0.492-0.57-0.853-0.747
		c-0.36-0.176-0.785-0.295-1.276-0.354s-1.022-0.09-1.594-0.09h-2.203V45.929z M73.622,47.496v5.634h2.997
		c1.264,0,2.24-0.223,2.928-0.667c0.688-0.445,1.033-1.133,1.033-2.065c0-0.558-0.099-1.023-0.296-1.397
		c-0.198-0.374-0.491-0.673-0.879-0.896c-0.388-0.222-0.865-0.379-1.43-0.471c-0.564-0.092-1.218-0.138-1.959-0.138H73.622z"/>
	<path fill="#FFFFFF" d="M90.077,54.697h-1.97l6.396-15.419h1.959l6.407,15.419h-2.022l-1.727-4.204h-7.392L90.077,54.697z
		 M92.312,48.926h6.185l-2.479-6.407c-0.057-0.134-0.115-0.291-0.18-0.471c-0.063-0.181-0.123-0.352-0.18-0.514
		c-0.07-0.191-0.138-0.385-0.201-0.583c-0.07,0.227-0.142,0.441-0.212,0.646c-0.057,0.176-0.118,0.351-0.186,0.523
		c-0.067,0.174-0.118,0.31-0.153,0.408L92.312,48.926z"/>
	<path fill="#FFFFFF" d="M119.367,41.777c-1.08-0.812-2.34-1.218-3.78-1.218c-0.649,0-1.243,0.087-1.779,0.26
		s-1.019,0.413-1.446,0.721c-0.427,0.308-0.797,0.669-1.111,1.086s-0.576,0.869-0.783,1.356c-0.209,0.488-0.364,1.002-0.467,1.543
		c-0.102,0.54-0.153,1.083-0.153,1.627c0,0.833,0.109,1.627,0.329,2.379c0.219,0.753,0.554,1.413,1.006,1.982
		c0.451,0.568,1.023,1.021,1.715,1.356c0.692,0.336,1.512,0.503,2.457,0.503c0.869,0,1.686-0.125,2.451-0.376
		c0.767-0.25,1.439-0.63,2.018-1.138l0.615,1.493c-0.657,0.529-1.434,0.927-2.33,1.191s-1.906,0.396-3.029,0.396
		c-1.164,0-2.191-0.204-3.082-0.614c-0.889-0.409-1.637-0.969-2.244-1.678c-0.607-0.71-1.066-1.536-1.377-2.479
		s-0.467-1.95-0.467-3.023c0-0.727,0.076-1.433,0.229-2.118c0.151-0.685,0.374-1.329,0.667-1.933s0.655-1.157,1.085-1.662
		c0.432-0.505,0.924-0.938,1.479-1.298c0.554-0.36,1.166-0.641,1.837-0.842s1.397-0.302,2.181-0.302
		c0.961,0,1.818,0.128,2.574,0.384s1.454,0.668,2.097,1.236L119.367,41.777z"/>
	<path fill="#FFFFFF" d="M129.617,54.697h-1.822V39.278h1.822v6.989l0.932-0.964l5.888-6.025h2.288l-7.297,7.18l7.868,8.239h-2.499
		l-6.291-6.714l-0.889-0.964V54.697z"/>
	<path fill="#FFFFFF" d="M145.289,39.278h1.82v9.637c0,1.44,0.356,2.544,1.068,3.31c0.713,0.766,1.767,1.148,3.162,1.148
		c0.643,0,1.227-0.101,1.752-0.302c0.524-0.201,0.973-0.49,1.343-0.868c0.37-0.377,0.655-0.838,0.856-1.382s0.301-1.154,0.301-1.832
		v-9.711h1.833l-0.011,9.584c-0.008,0.953-0.14,1.808-0.396,2.562c-0.258,0.756-0.643,1.393-1.155,1.912
		c-0.512,0.519-1.15,0.916-1.917,1.19c-0.766,0.275-1.656,0.413-2.674,0.413c-1.102,0-2.033-0.145-2.795-0.434
		c-0.764-0.29-1.381-0.697-1.854-1.224c-0.474-0.525-0.814-1.155-1.022-1.89s-0.312-1.543-0.312-2.426V39.278z"/>
	<path fill="#FFFFFF" d="M167.452,54.697h-1.822V39.278h3.611c0.601,0,1.188,0.026,1.764,0.079s1.12,0.145,1.636,0.275
		s0.99,0.308,1.425,0.529c0.434,0.223,0.809,0.505,1.122,0.848c0.314,0.343,0.56,0.75,0.736,1.223
		c0.177,0.474,0.265,1.027,0.265,1.663c0,0.805-0.175,1.497-0.524,2.075c-0.35,0.579-0.818,1.054-1.408,1.425
		c-0.59,0.37-1.27,0.645-2.038,0.82c-0.771,0.177-1.575,0.265-2.415,0.265h-2.351V54.697z M167.452,40.846v6.067h2.764
		c0.579,0,1.115-0.058,1.609-0.175c0.494-0.116,0.92-0.297,1.276-0.541c0.356-0.243,0.636-0.553,0.837-0.928
		s0.302-0.824,0.302-1.348c0-0.615-0.111-1.123-0.334-1.522s-0.533-0.714-0.932-0.944c-0.399-0.229-0.876-0.389-1.43-0.477
		c-0.555-0.089-1.167-0.133-1.838-0.133H167.452z"/>
</g>
<g>
	<circle opacity="0.9" fill="#FFFFFF" enable-background="new    " cx="28.752" cy="32.016" r="0.721"/>
	<circle opacity="0.9" fill="#FFFFFF" enable-background="new    " cx="28.752" cy="28.747" r="0.721"/>
	<g>
		<path opacity="0.9" fill="#FFFFFF" enable-background="new    " d="M32.393,1.017C15.005,1.017,0.909,15.113,0.909,32.5
			c0,17.387,14.096,31.482,31.484,31.482S63.875,49.889,63.875,32.5C63.875,15.113,49.781,1.017,32.393,1.017z M45.029,49.373
			H19.457c-0.035,0-0.066-0.008-0.1-0.012C13.284,49.15,8.408,44.148,8.408,38.025c0-6.369,3.447-10.629,9.573-10.82
			c0.698-0.031,1.266,0.52,1.288,1.21c0.021,0.689-0.52,1.267-1.211,1.288c-4.723,0.147-7.15,3.357-7.15,8.322
			c0,4.879,3.969,8.848,8.848,8.848h25.272c4.879,0,8.848-3.969,8.848-8.848c0-4.851-3.887-8.649-8.848-8.649
			c-0.611,0-1.117-0.438-1.227-1.017c-0.022-0.077-0.036-0.163-0.036-0.263c0-5.721-4.654-9.875-10.374-9.875
			c-5.72,0-10.373,4.654-10.373,10.375c0,5.72,4.653,10.372,10.373,10.372c3.027,0,5.89-1.315,7.866-3.612l-1.595-1.023l4.37-0.951
			l0.949,4.369l-1.551-0.997c-0.045,0.086-0.097,0.17-0.164,0.248c-2.47,2.899-6.07,4.562-9.875,4.562
			c-7.151,0-12.967-5.816-12.967-12.966c0-7.151,5.816-12.967,12.967-12.967c6.76,0,12.326,4.754,12.912,11.317
			c5.741,0.604,10.071,5.253,10.071,11.08C56.376,44.282,51.285,49.373,45.029,49.373z M38.306,30.248h-9.673
			c-0.828,0-1.5-0.671-1.5-1.5s0.671-1.5,1.5-1.5h9.673c0.828,0,1.5,0.671,1.5,1.5S39.134,30.248,38.306,30.248z M39.806,32.016
			c0,0.828-0.672,1.5-1.5,1.5h-9.673c-0.828,0-1.5-0.672-1.5-1.5c0-0.828,0.671-1.5,1.5-1.5h9.673
			C39.134,30.516,39.806,31.188,39.806,32.016z M38.306,26.894h-9.673c-0.828,0-1.5-0.671-1.5-1.5s0.671-1.5,1.5-1.5h9.673
			c0.828,0,1.5,0.672,1.5,1.5C39.806,26.223,39.134,26.894,38.306,26.894z"/>
		<circle opacity="0.9" fill="#FFFFFF" enable-background="new    " cx="28.752" cy="25.395" r="0.721"/>
	</g>
</g>
</svg>
