<?xml version="1.0" encoding="utf-8"?>
<!-- Generator: Adobe Illustrator 15.0.0, SVG Export Plug-In . SVG Version: 6.00 Build 0)  -->
<!DOCTYPE svg PUBLIC "-//W3C//DTD SVG 1.1//EN" "http://www.w3.org/Graphics/SVG/1.1/DTD/svg11.dtd">
<svg version="1.1" id="Capa_1" xmlns="http://www.w3.org/2000/svg" xmlns:xlink="http://www.w3.org/1999/xlink" x="0px" y="0px"
	 width="20px" height="20px" viewBox="0 0 20 20" enable-background="new 0 0 20 20" xml:space="preserve">
<polygon fill="#49637F" points="11.249,14.465 9.439,14.465 7.541,18.324 7.541,19.593 9.439,19.593 11.249,19.593 13.151,19.593 
	13.151,18.324 "/>
<path fill="#49637F" d="M18.184,0.948H1.847c-0.694,0-1.258,0.566-1.258,1.265v11.604c0,0.699,0.564,1.266,1.258,1.266h16.336
	c0.69,0,1.256-0.566,1.256-1.266V2.213C19.439,1.514,18.874,0.948,18.184,0.948z M18.093,12.079H1.937V2.293h16.156V12.079z"/>
<path fill="none" stroke="#49637F" stroke-width="0.5" stroke-miterlimit="10" d="M11.797,7.961c0,0-0.377,0.872-1.587,0.872
	c-1.212,0-2.005-1.211-2.005-2.046c0-0.836,0.835-2.005,2.005-2.005c1.169,0,2.005,1.044,2.005,2.005
	c1.043,0,1.629,0.918,1.629,1.67s-0.836,1.629-1.379,1.629s-4.887,0-4.887,0s-1.42-0.428-1.42-1.697s1.504-1.603,1.504-1.603"/>
<line fill="none" stroke="#49637F" stroke-width="0.5" stroke-miterlimit="10" x1="11.157" y1="7.434" x2="9.197" y2="7.434"/>
<line fill="none" stroke="#49637F" stroke-width="0.5" stroke-miterlimit="10" x1="11.157" y1="6.812" x2="9.197" y2="6.812"/>
<line fill="none" stroke="#49637F" stroke-width="0.5" stroke-miterlimit="10" x1="11.157" y1="6.124" x2="9.197" y2="6.124"/>
</svg>
